<svg width="455" height="76" viewBox="0 0 455 76" fill="none" xmlns="http://www.w3.org/2000/svg">
<path fill-rule="evenodd" clip-rule="evenodd" d="M452.138 41.8002C451.008 41.7811 449.879 41.7711 448.75 41.7711C447.232 41.7711 445.81 41.7811 444.486 41.8002C443.162 41.8201 442.092 41.8683 441.274 41.9454V40.7835C443.26 40.7063 444.525 40.3677 445.07 39.7668C445.615 39.1668 445.499 37.8788 444.72 35.9035L441.135 26.3758H427.011L424.627 32.534C423.81 34.6254 423.42 36.2621 423.459 37.4432C423.498 38.6249 423.946 39.4673 424.803 39.9701C425.659 40.4739 426.905 40.7453 428.541 40.7835V41.9454C427.45 41.8683 426.311 41.8201 425.124 41.8002C423.936 41.7811 422.836 41.7711 421.824 41.7711C420.85 41.7711 420.022 41.7811 419.341 41.8002C418.66 41.8201 418.027 41.8683 417.443 41.9454V40.7835C418.222 40.5901 419.02 40.1354 419.838 39.4182C420.656 38.7021 421.395 37.4721 422.057 35.7293L435.783 0.522892C435.939 0.522892 436.095 0.522892 436.251 0.522892C436.406 0.522892 436.562 0.522892 436.718 0.522892L450.97 37.0655C451.554 38.5378 452.216 39.5154 452.956 39.9992C453.695 40.4839 454.377 40.7453 455 40.7835V41.9454C454.221 41.8683 453.267 41.8201 452.138 41.8002ZM434.173 7.87105L427.46 25.2139H440.698L434.173 7.87105ZM401.148 41.7711C399.629 41.7711 398.207 41.7811 396.884 41.8002C395.559 41.8201 394.489 41.8683 393.671 41.9454V40.7835C394.995 40.7063 395.998 40.5511 396.679 40.3188C397.36 40.0864 397.818 39.6216 398.052 38.9244C398.286 38.2274 398.402 37.1816 398.402 35.7873V6.97158C398.402 5.53919 398.286 4.48345 398.052 3.80539C397.818 3.12813 397.36 2.66343 396.679 2.41106C395.998 2.15964 394.995 2.01435 393.671 1.97534V0.813398C394.489 0.852406 395.559 0.891413 396.884 0.929552C398.207 0.968639 399.629 0.987672 401.148 0.987672C402.51 0.987672 403.864 0.968639 405.207 0.929552C406.55 0.891413 407.669 0.852406 408.566 0.813398V1.97534C407.241 2.01435 406.238 2.15964 405.557 2.41106C404.876 2.66343 404.418 3.12813 404.185 3.80539C403.951 4.48345 403.834 5.53919 403.834 6.97158V35.7873C403.834 37.1816 403.951 38.2274 404.185 38.9244C404.418 39.6216 404.876 40.0864 405.557 40.3188C406.238 40.5511 407.241 40.7063 408.566 40.7835V41.9454C407.669 41.8683 406.55 41.8201 405.207 41.8002C403.864 41.7811 402.51 41.7711 401.148 41.7711ZM378.777 42.7587C377.336 42.7587 376.07 42.3322 374.981 41.4806C373.89 40.6292 373.072 38.9635 372.527 36.4845L371.242 30.6749C370.892 29.01 370.492 27.5667 370.045 26.3467C369.597 25.1267 368.974 24.1681 368.176 23.4709C367.377 22.7738 366.199 22.4252 364.642 22.4252H363.591H359.093V35.7873C359.093 37.1816 359.21 38.2274 359.444 38.9244C359.677 39.6216 360.135 40.0864 360.816 40.3188C361.497 40.5511 362.5 40.7063 363.824 40.7835V41.9454C362.928 41.8683 361.809 41.8201 360.466 41.8002C359.122 41.7811 357.769 41.7711 356.406 41.7711C354.888 41.7711 353.466 41.7811 352.143 41.8002C350.818 41.8201 349.748 41.8683 348.93 41.9454V40.7835C350.254 40.7063 351.257 40.5511 351.938 40.3188C352.619 40.0864 353.077 39.6216 353.311 38.9244C353.544 38.2274 353.661 37.1816 353.661 35.7873V6.97158C353.661 5.53919 353.544 4.48345 353.311 3.80539C353.077 3.12813 352.619 2.66343 351.938 2.41106C351.257 2.15964 350.254 2.01435 348.93 1.97534V0.813398C349.748 0.852406 350.818 0.891413 352.143 0.929552C353.466 0.968639 354.771 0.987672 356.056 0.987672C357.886 0.987672 359.638 0.968639 361.313 0.929552C362.987 0.891413 364.175 0.871518 364.876 0.871518C369.587 0.871518 373.112 1.84008 375.448 3.77626C377.784 5.71346 378.952 8.11441 378.952 10.9802C378.952 12.1422 378.719 13.3821 378.251 14.6984C377.784 16.0155 376.976 17.2547 375.827 18.4166C374.679 19.5784 373.111 20.5371 371.126 21.2923C370.11 21.6785 368.955 21.9645 367.665 22.1532C367.885 22.1851 368.107 22.2153 368.322 22.2509C370.93 22.6775 372.809 23.4619 373.958 24.6038C375.107 25.7467 375.953 27.5186 376.499 29.9196L377.96 35.8455C378.348 37.5502 378.748 38.7793 379.157 39.5344C379.566 40.2897 380.198 40.6483 381.055 40.6092C381.717 40.571 382.272 40.3578 382.72 39.9701C383.167 39.5835 383.644 39.0606 384.151 38.4017L385.027 39.0405C384.209 40.2415 383.362 41.1611 382.486 41.8002C381.61 42.4392 380.373 42.7587 378.777 42.7587ZM369.344 19.9561C370.804 19.0847 371.797 17.9228 372.323 16.4703C372.849 15.0179 373.111 13.4012 373.111 11.6193C373.111 8.56017 372.381 6.18732 370.921 4.50256C369.461 2.81772 366.958 1.97534 363.416 1.97534C361.624 1.97534 360.456 2.30486 359.911 2.96302C359.365 3.62196 359.093 4.95817 359.093 6.97158V21.2633H363.007C365.771 21.2633 367.884 20.8276 369.344 19.9561ZM329.831 40.0283C327.027 41.8492 323.815 42.7587 320.193 42.7587C316.493 42.7587 313.252 41.9263 310.468 40.2606C307.684 38.5959 305.522 36.194 303.985 33.0568C302.446 29.9196 301.677 26.1434 301.677 21.7281C301.677 17.3909 302.475 13.5945 304.072 10.3412C305.668 7.08781 307.859 4.55152 310.643 2.73055C313.427 0.910523 316.63 0 320.252 0C323.951 0 327.192 0.833377 329.977 2.49824C332.76 4.16396 334.921 6.55584 336.46 9.67307C337.998 12.7912 338.767 16.5774 338.767 21.0309C338.767 25.3691 337.979 29.1643 336.402 32.4178C334.825 35.6711 332.634 38.2083 329.831 40.0283ZM331.203 10.5155C330.054 7.49448 328.506 5.16159 326.56 3.51489C324.612 1.86906 322.432 1.04571 320.018 1.04571C317.486 1.04571 315.287 1.91723 313.418 3.66011C311.549 5.40298 310.098 7.80488 309.066 10.8641C308.034 13.9241 307.518 17.4679 307.518 21.4957C307.518 25.6014 308.092 29.1744 309.241 32.2144C310.389 35.2554 311.947 37.5984 313.914 39.244C315.88 40.8906 318.051 41.7131 320.427 41.7131C322.957 41.7131 325.158 40.8416 327.027 39.0987C328.896 37.356 330.346 34.9449 331.379 31.8659C332.41 28.7867 332.926 25.2528 332.926 21.2633C332.926 17.1194 332.351 13.5365 331.203 10.5155ZM291.69 8.24968C291.69 9.17923 291.709 10.0507 291.749 10.8641C291.787 11.6775 291.826 12.3945 291.866 13.0136H290.522C290.249 10.3031 289.88 8.16258 289.412 6.59398C288.945 5.02538 288.127 3.89249 286.959 3.19533C285.791 2.49824 283.98 2.14962 281.527 2.14962H278.373V35.2064C278.373 36.7559 278.519 37.9179 278.811 38.6921C279.103 39.4673 279.677 39.9901 280.534 40.2606C281.39 40.5321 282.637 40.7063 284.272 40.7835V41.9454C283.259 41.8683 281.974 41.8201 280.417 41.8002C278.859 41.7811 277.282 41.7711 275.686 41.7711C273.934 41.7711 272.288 41.7811 270.751 41.8002C269.212 41.8201 267.976 41.8683 267.042 41.9454V40.7835C268.677 40.7063 269.923 40.5321 270.78 40.2606C271.636 39.9901 272.211 39.4673 272.503 38.6921C272.795 37.9179 272.941 36.7559 272.941 35.2064V2.14962H269.787C267.372 2.14962 265.571 2.49824 264.384 3.19533C263.196 3.89249 262.369 5.02538 261.902 6.59398C261.434 8.16258 261.064 10.3031 260.792 13.0136H259.449C259.526 12.3945 259.574 11.6775 259.595 10.8641C259.614 10.0507 259.624 9.17923 259.624 8.24968C259.624 7.51445 259.595 6.45872 259.536 5.08342C259.478 3.70914 259.37 2.28575 259.215 0.813398C260.85 0.852406 262.632 0.891413 264.559 0.929552C266.487 0.968639 268.423 0.987672 270.371 0.987672C272.318 0.987672 274.089 0.987672 275.686 0.987672C277.282 0.987672 279.045 0.987672 280.972 0.987672C282.9 0.987672 284.836 0.968639 286.784 0.929552C288.731 0.891413 290.502 0.852406 292.099 0.813398C291.943 2.28575 291.836 3.70914 291.778 5.08342C291.72 6.45872 291.69 7.51445 291.69 8.24968ZM267.287 64.4252H260.274V67.9756H267.143V70.0895H260.274V73.8861H267.287V76H257.861V62.3114H267.287V64.4252ZM223.849 36.4264C225.036 38.1312 226.438 39.4182 228.054 40.2897C229.67 41.1611 231.413 41.5968 233.282 41.5968C235.034 41.5968 236.864 41.2482 238.772 40.5511C240.68 39.8539 242.179 38.7311 243.27 37.1816C244.126 36.0588 244.72 34.8387 245.051 33.5216C245.382 32.2054 245.684 30.3653 245.957 28.0025H247.3C247.3 31.5272 247.319 34.364 247.359 36.5136C247.397 38.663 247.455 40.4739 247.534 41.9454H246.19C246.034 40.2805 245.771 39.2348 245.402 38.8083C245.031 38.3827 244.418 38.4407 243.562 38.9825C242.121 39.9901 240.592 40.8706 238.977 41.6259C237.361 42.3811 235.287 42.7587 232.756 42.7587C229.056 42.7587 225.815 41.9263 223.031 40.2606C220.247 38.5959 218.086 36.194 216.548 33.0568C215.009 29.9196 214.241 26.1434 214.241 21.7281C214.241 17.3909 215.038 13.5945 216.635 10.3412C218.232 7.08781 220.422 4.55152 223.206 2.73055C225.99 0.910523 229.193 0 232.815 0C235.385 0 237.497 0.3776 239.152 1.13288C240.807 1.88817 242.277 2.76964 243.562 3.77626C244.34 4.35727 244.935 4.42534 245.343 3.97959C245.752 3.53479 246.034 2.47913 246.19 0.813398H247.534C247.455 2.24666 247.397 3.98961 247.359 6.04203C247.319 8.0953 247.3 10.806 247.3 14.1755H245.957C245.684 12.5107 245.431 11.1836 245.197 10.196C244.964 9.20837 244.681 8.36591 244.35 7.66874C244.019 6.97158 243.581 6.2745 243.036 5.57725C241.829 3.98962 240.31 2.8377 238.48 2.12055C236.65 1.40436 234.722 1.04571 232.698 1.04571C230.79 1.04571 229.066 1.52052 227.529 2.4691C225.99 3.41864 224.667 4.78399 223.557 6.565C222.447 8.34688 221.59 10.4965 220.987 13.0136C220.383 15.5317 220.082 18.3585 220.082 21.4957C220.082 24.7491 220.412 27.6249 221.075 30.123C221.736 32.6211 222.661 34.7226 223.849 36.4264ZM215.459 64.4252H208.446V67.9756H215.314V70.0895H208.446V73.8861H215.459V76H206.033V62.3114H215.459V64.4252ZM196.66 41.7711C195.142 41.7711 193.72 41.7811 192.396 41.8002C191.072 41.8201 190.002 41.8683 189.184 41.9454V40.7835C190.507 40.7063 191.51 40.5511 192.192 40.3188C192.873 40.0864 193.331 39.6216 193.565 38.9244C193.798 38.2274 193.915 37.1816 193.915 35.7873V6.97158C193.915 5.53919 193.798 4.48345 193.565 3.80539C193.331 3.12813 192.873 2.66343 192.192 2.41106C191.51 2.15964 190.507 2.01435 189.184 1.97534V0.813398C190.002 0.852406 191.072 0.891413 192.396 0.929552C193.72 0.968639 195.142 0.987672 196.66 0.987672C198.023 0.987672 199.376 0.968639 200.72 0.929552C202.063 0.891413 203.182 0.852406 204.078 0.813398V1.97534C202.754 2.01435 201.751 2.15964 201.07 2.41106C200.388 2.66343 199.931 3.12813 199.697 3.80539C199.464 4.48345 199.347 5.53919 199.347 6.97158V35.7873C199.347 37.1816 199.464 38.2274 199.697 38.9244C199.931 39.6216 200.388 40.0864 201.07 40.3188C201.751 40.5511 202.754 40.7063 204.078 40.7835V41.9454C203.182 41.8683 202.063 41.8201 200.72 41.8002C199.376 41.7811 198.023 41.7711 196.66 41.7711ZM196.293 64.4252H192.127V76H189.714V64.4252H185.547V62.3114H196.293V64.4252ZM176.919 7.0297L163.192 42.2358C163.114 42.2358 163.036 42.2358 162.959 42.2358C162.88 42.2358 162.803 42.2358 162.725 42.2358C162.647 42.2358 162.569 42.2358 162.492 42.2358C162.413 42.2358 162.336 42.2358 162.258 42.2358L148.006 5.69356C147.422 4.222 146.759 3.24436 146.02 2.75969C145.28 2.2758 144.598 2.01435 143.976 1.97534V0.813398C144.754 0.852406 145.718 0.891413 146.867 0.929552C148.015 0.968639 149.135 0.987672 150.226 0.987672C151.744 0.987672 153.165 0.968639 154.49 0.929552C155.813 0.891413 156.884 0.852406 157.702 0.813398V1.97534C155.716 2.05344 154.46 2.39195 153.935 2.992C153.409 3.5929 153.516 4.88016 154.256 6.85542L164.847 34.7762L174.349 10.2249C175.166 8.13353 175.555 6.4978 175.517 5.31588C175.478 4.13483 175.029 3.29245 174.173 2.78866C173.316 2.28575 172.071 2.01435 170.435 1.97534V0.813398C171.564 0.852406 172.713 0.891413 173.881 0.929552C175.05 0.968639 176.139 0.987672 177.152 0.987672C178.164 0.987672 179.001 0.968639 179.664 0.929552C180.326 0.891413 180.949 0.852406 181.533 0.813398V1.97534C180.793 2.13051 180.004 2.57625 179.167 3.31148C178.33 4.04765 177.58 5.28682 176.919 7.0297ZM145.261 40.7835V41.9454C144.482 41.8683 143.528 41.8201 142.399 41.8002C141.27 41.7811 140.141 41.7711 139.012 41.7711C137.493 41.7711 136.071 41.7811 134.748 41.8002C133.424 41.8201 132.353 41.8683 131.535 41.9454V40.7835C133.521 40.7063 134.786 40.3677 135.332 39.7668C135.877 39.1668 135.76 37.8788 134.982 35.9035L131.397 26.3758H117.272L114.889 32.534C114.071 34.6254 113.681 36.2621 113.721 37.4432C113.759 38.6249 114.207 39.4673 115.064 39.9701C115.92 40.4739 117.167 40.7453 118.802 40.7835V41.9454C117.712 41.8683 116.573 41.8201 115.385 41.8002C114.197 41.7811 113.097 41.7711 112.085 41.7711C111.112 41.7711 110.284 41.7811 109.603 41.8002C108.921 41.8201 108.289 41.8683 107.705 41.9454V40.7835C108.483 40.5901 109.282 40.1354 110.099 39.4182C110.917 38.7021 111.656 37.4721 112.319 35.7293L126.045 0.522892C126.2 0.522892 126.356 0.522892 126.512 0.522892C126.667 0.522892 126.823 0.522892 126.979 0.522892L141.231 37.0655C141.815 38.5378 142.477 39.5154 143.217 39.9992C143.956 40.4839 144.638 40.7453 145.261 40.7835ZM124.434 7.87113L117.722 25.2139H130.959L124.434 7.87113ZM103.325 7.0297L89.5984 42.2358C89.5199 42.2358 89.4423 42.2358 89.3647 42.2358C89.2862 42.2358 89.2086 42.2358 89.1311 42.2358C89.0526 42.2358 88.975 42.2358 88.8975 42.2358C88.819 42.2358 88.7414 42.2358 88.6638 42.2358L74.412 5.69356C73.828 4.222 73.1653 3.24436 72.4261 2.75969C71.6859 2.2758 71.0042 2.01435 70.3818 1.97534V0.813398C71.1603 0.852406 72.124 0.891413 73.273 0.929552C74.4211 0.968639 75.541 0.987672 76.6316 0.987672C78.1501 0.987672 79.5711 0.968639 80.8954 0.929552C82.2187 0.891413 83.2902 0.852406 84.1079 0.813398V1.97534C82.122 2.05344 80.8662 2.39195 80.3405 2.992C79.8148 3.5929 79.9217 4.88016 80.6618 6.85542L91.2525 34.7762L100.754 10.2249C101.572 8.13353 101.961 6.4978 101.923 5.31588C101.883 4.13483 101.435 3.29245 100.579 2.78866C99.7223 2.28575 98.4765 2.01435 96.8411 1.97534V0.813398C97.97 0.852406 99.119 0.891413 100.287 0.929552C101.455 0.968639 102.545 0.987672 103.558 0.987672C104.57 0.987672 105.407 0.968639 106.07 0.929552C106.731 0.891413 107.355 0.852406 107.939 0.813398V1.97534C107.199 2.13051 106.41 2.57625 105.573 3.31148C104.735 4.04765 103.986 5.28682 103.325 7.0297ZM54.0279 41.7711C52.5092 41.7711 51.0874 41.7811 49.764 41.8002C48.4398 41.8201 47.3692 41.8683 46.5515 41.9454V40.7835C47.8749 40.7063 48.8779 40.5511 49.5596 40.3188C50.2404 40.0864 50.6986 39.6216 50.9322 38.9244C51.1659 38.2274 51.2827 37.1816 51.2827 35.7873V6.97158C51.2827 5.53919 51.1659 4.48345 50.9322 3.80539C50.6986 3.12813 50.2404 2.66343 49.5596 2.41106C48.8779 2.15964 47.8749 2.01435 46.5515 1.97534V0.813398C47.3692 0.852406 48.4398 0.891413 49.764 0.929552C51.0874 0.968639 52.5092 0.987672 54.0279 0.987672C55.3904 0.987672 56.7439 0.968639 58.0873 0.929552C59.4307 0.891413 60.5496 0.852406 61.4458 0.813398V1.97534C60.1216 2.01435 59.1186 2.15964 58.4377 2.41106C57.756 2.66343 57.2988 3.12813 57.0651 3.80539C56.8315 4.48345 56.7147 5.53919 56.7147 6.97158V35.7873C56.7147 37.1816 56.8315 38.2274 57.0651 38.9244C57.2988 39.6216 57.756 40.0864 58.4377 40.3188C59.1186 40.5511 60.1216 40.7063 61.4458 40.7835V41.9454C60.5496 41.8683 59.4307 41.8201 58.0873 41.8002C56.7439 41.7811 55.3904 41.7711 54.0279 41.7711ZM26.8683 39.3311C23.7141 41.074 19.8974 41.9454 15.42 41.9454C14.5631 41.9454 13.2972 41.9163 11.6234 41.8582C9.94876 41.8002 8.4885 41.7711 7.24275 41.7711C5.87925 41.7711 4.53588 41.7811 3.21258 41.8002C1.88833 41.8201 0.817756 41.8683 0 41.9454V40.7835C1.32338 40.7063 2.32639 40.5511 3.00814 40.3188C3.68894 40.0864 4.14707 39.6216 4.38069 38.9244C4.61439 38.2274 4.7312 37.1816 4.7312 35.7873V6.97158C4.7312 5.53919 4.61439 4.48345 4.38069 3.80539C4.14707 3.12813 3.68894 2.66343 3.00814 2.41106C2.32639 2.15964 1.32338 2.01435 0 1.97534V0.813398C0.817756 0.852406 1.88833 0.900576 3.21258 0.958693C4.53588 1.01673 5.84094 1.02676 7.12594 0.987672C8.4885 0.949533 10.0263 0.910525 11.7402 0.871518C13.4532 0.833378 14.8551 0.813398 15.9457 0.813398C22.9156 0.813398 28.0948 2.54719 31.4826 6.01305C34.8702 9.47977 36.5641 14.4469 36.5641 20.9147C36.5641 25.1367 35.7364 28.8257 34.0817 31.9821C32.4262 35.1392 30.0223 37.5884 26.8683 39.3311ZM27.1311 6.62296C24.7363 3.44769 20.5208 1.85911 14.4855 1.85911C12.694 1.85911 11.5258 2.18862 10.9809 2.8467C10.4352 3.50581 10.1632 4.84202 10.1632 6.85542V35.9035C10.1632 37.9179 10.4453 39.2539 11.0101 39.912C11.5742 40.571 12.7524 40.8996 14.544 40.8996C18.7877 40.8996 22.0787 40.1354 24.4151 38.6049C26.7514 37.0754 28.3868 34.8387 29.3214 31.8949C30.2559 28.952 30.7233 25.3691 30.7233 21.1471C30.7233 14.6403 29.5258 9.79925 27.1311 6.62296ZM174.162 62.3114L179.566 76H176.823L175.812 73.3731H169.5L168.49 76H165.747L171.151 62.3114H174.162ZM175.131 71.2592L172.656 64.7331L170.181 71.2592H175.131ZM228.531 73.8861H234.595V76H226.118V62.3114H228.531V73.8861ZM246.825 76H244.411V62.3114H246.825V76ZM287.249 63.5017C288.074 64.2954 288.486 65.3282 288.486 66.6006C288.486 67.7499 288.17 68.6702 287.538 69.3609C286.905 70.0519 286.135 70.4727 285.228 70.6231L288.59 76H285.805L282.753 70.8898H280.36V76H277.947V62.3114H283.99C285.337 62.3114 286.424 62.7084 287.249 63.5017ZM280.36 64.4252V68.776H283.66C284.347 68.776 284.911 68.5779 285.351 68.1808C285.791 67.7842 286.011 67.2574 286.011 66.6006C286.011 65.944 285.791 65.4174 285.351 65.0204C284.911 64.6237 284.347 64.4252 283.66 64.4252H280.36Z" fill="black"/>
</svg>
