<svg width="288" height="48" viewBox="0 0 288 48" fill="none" xmlns="http://www.w3.org/2000/svg">
<path fill-rule="evenodd" clip-rule="evenodd" d="M286.188 26.4001C285.473 26.388 284.759 26.3817 284.044 26.3817C283.083 26.3817 282.183 26.388 281.345 26.4001C280.507 26.4127 279.829 26.4431 279.312 26.4918V25.758C280.569 25.7092 281.37 25.4954 281.715 25.1159C282.06 24.7369 281.986 23.9235 281.493 22.6759L279.224 16.6584H270.284L268.775 20.5478C268.258 21.8687 268.011 22.9024 268.036 23.6483C268.06 24.3947 268.344 24.9267 268.886 25.2443C269.428 25.5625 270.217 25.7339 271.252 25.758V26.4918C270.562 26.4431 269.841 26.4127 269.089 26.4001C268.337 26.388 267.641 26.3817 267 26.3817C266.384 26.3817 265.86 26.388 265.429 26.4001C264.998 26.4127 264.597 26.4431 264.228 26.4918V25.758C264.72 25.6358 265.226 25.3487 265.743 24.8957C266.261 24.4434 266.729 23.6666 267.148 22.5659L275.837 0.330248C275.935 0.330248 276.034 0.330248 276.132 0.330248C276.231 0.330248 276.329 0.330248 276.428 0.330248L285.449 23.4098C285.819 24.3397 286.238 24.9571 286.706 25.2626C287.174 25.5688 287.605 25.7339 288 25.758V26.4918C287.507 26.4431 286.903 26.4127 286.188 26.4001ZM274.817 4.97119L270.568 15.9246H278.947L274.817 4.97119ZM253.913 26.3817C252.952 26.3817 252.052 26.388 251.214 26.4001C250.376 26.4127 249.698 26.4431 249.181 26.4918V25.758C250.019 25.7092 250.653 25.6112 251.085 25.4645C251.516 25.3177 251.806 25.0242 251.954 24.5838C252.102 24.1436 252.176 23.4831 252.176 22.6025V4.4031C252.176 3.49843 252.102 2.83165 251.954 2.40341C251.806 1.97566 251.516 1.68216 251.085 1.52278C250.653 1.36398 250.019 1.27222 249.181 1.24759V0.513725C249.698 0.538361 250.376 0.562998 251.214 0.587086C252.052 0.611772 252.952 0.623793 253.913 0.623793C254.776 0.623793 255.632 0.611772 256.483 0.587086C257.333 0.562998 258.041 0.538361 258.609 0.513725V1.24759C257.77 1.27222 257.135 1.36398 256.704 1.52278C256.273 1.68216 255.984 1.97566 255.836 2.40341C255.688 2.83165 255.614 3.49843 255.614 4.4031V22.6025C255.614 23.4831 255.688 24.1436 255.836 24.5838C255.984 25.0242 256.273 25.3177 256.704 25.4645C257.135 25.6112 257.77 25.7092 258.609 25.758V26.4918C258.041 26.4431 257.333 26.4127 256.483 26.4001C255.632 26.388 254.776 26.3817 253.913 26.3817ZM239.753 27.0055C238.841 27.0055 238.04 26.7361 237.35 26.1983C236.66 25.6605 236.142 24.6085 235.798 23.0428L234.984 19.3736C234.762 18.3221 234.509 17.4105 234.226 16.64C233.943 15.8695 233.548 15.2641 233.043 14.8237C232.538 14.3834 231.792 14.1633 230.806 14.1633H230.141H227.294V22.6025C227.294 23.4831 227.368 24.1436 227.516 24.5838C227.664 25.0242 227.953 25.3177 228.385 25.4645C228.816 25.6112 229.451 25.7092 230.289 25.758V26.4918C229.722 26.4431 229.013 26.4127 228.163 26.4001C227.313 26.388 226.456 26.3817 225.594 26.3817C224.632 26.3817 223.732 26.388 222.895 26.4001C222.057 26.4127 221.379 26.4431 220.861 26.4918V25.758C221.699 25.7092 222.334 25.6112 222.765 25.4645C223.196 25.3177 223.486 25.0242 223.634 24.5838C223.782 24.1436 223.856 23.4831 223.856 22.6025V4.4031C223.856 3.49843 223.782 2.83165 223.634 2.40341C223.486 1.97566 223.196 1.68216 222.765 1.52278C222.334 1.36398 221.699 1.27222 220.861 1.24759V0.513725C221.379 0.538361 222.057 0.562998 222.895 0.587086C223.732 0.611772 224.558 0.623793 225.372 0.623793C226.53 0.623793 227.639 0.611772 228.699 0.587086C229.759 0.562998 230.511 0.550432 230.954 0.550432C233.936 0.550432 236.167 1.16216 237.646 2.38501C239.125 3.6085 239.864 5.12489 239.864 6.93488C239.864 7.66879 239.716 8.45187 239.421 9.28323C239.125 10.1151 238.613 10.8977 237.886 11.6315C237.159 12.3653 236.167 12.9708 234.91 13.4478C234.267 13.6917 233.536 13.8723 232.72 13.9915C232.859 14.0116 233 14.0307 233.136 14.0532C234.787 14.3226 235.976 14.818 236.703 15.5393C237.43 16.261 237.966 17.3802 238.312 18.8966L239.236 22.6393C239.482 23.7159 239.735 24.4922 239.994 24.9691C240.253 25.4461 240.653 25.6726 241.195 25.6479C241.614 25.6238 241.965 25.4891 242.249 25.2443C242.532 25.0001 242.834 24.6698 243.155 24.2537L243.709 24.6572C243.192 25.4157 242.656 25.9965 242.101 26.4001C241.547 26.8037 240.764 27.0055 239.753 27.0055ZM233.783 12.6039C234.707 12.0535 235.335 11.3197 235.668 10.4023C236.001 9.48501 236.167 8.46394 236.167 7.33849C236.167 5.40642 235.705 3.90778 234.781 2.84372C233.857 1.77961 232.273 1.24759 230.03 1.24759C228.896 1.24759 228.157 1.4557 227.812 1.87138C227.466 2.28756 227.294 3.13148 227.294 4.4031V13.4294H229.771C231.521 13.4294 232.858 13.1543 233.783 12.6039ZM208.772 25.281C206.997 26.4311 204.964 27.0055 202.672 27.0055C200.33 27.0055 198.278 26.4798 196.516 25.4277C194.754 24.3763 193.386 22.8593 192.412 20.878C191.438 18.8966 190.952 16.5116 190.952 13.723C190.952 10.9837 191.457 8.58602 192.468 6.53127C193.478 4.47651 194.864 2.87464 196.627 1.72455C198.389 0.575067 200.416 0 202.709 0C205.05 0 207.102 0.526343 208.864 1.57783C210.626 2.62987 211.994 4.14053 212.968 6.1093C213.942 8.07868 214.428 10.47 214.428 13.2827C214.428 16.0226 213.929 18.4196 212.931 20.4744C211.933 22.5291 210.547 24.1316 208.772 25.281ZM209.641 6.64134C208.913 4.73335 207.934 3.25995 206.702 2.21993C205.469 1.18046 204.089 0.660446 202.561 0.660446C200.958 0.660446 199.566 1.21088 198.383 2.31165C197.2 3.41241 196.281 4.9294 195.629 6.86152C194.975 8.79419 194.649 11.0324 194.649 13.5762C194.649 16.1693 195.012 18.4259 195.74 20.3459C196.466 22.2666 197.452 23.7464 198.697 24.7857C199.942 25.8256 201.316 26.3451 202.82 26.3451C204.421 26.3451 205.814 25.7947 206.997 24.6939C208.18 23.5932 209.098 22.0705 209.752 20.1258C210.404 18.1811 210.731 15.9492 210.731 13.4294C210.731 10.8122 210.367 8.54937 209.641 6.64134ZM184.63 5.21032C184.63 5.79741 184.642 6.34779 184.667 6.86152C184.692 7.37524 184.716 7.82813 184.741 8.21912H183.891C183.718 6.50723 183.484 5.15532 183.188 4.16462C182.893 3.17392 182.375 2.45842 181.636 2.0181C180.896 1.57783 179.75 1.35765 178.197 1.35765H176.201V22.2356C176.201 23.2143 176.293 23.9481 176.478 24.4371C176.663 24.9267 177.026 25.2569 177.569 25.4277C178.111 25.5992 178.9 25.7092 179.935 25.758V26.4918C179.294 26.4431 178.48 26.4127 177.495 26.4001C176.509 26.388 175.511 26.3817 174.5 26.3817C173.391 26.3817 172.35 26.388 171.376 26.4001C170.402 26.4127 169.62 26.4431 169.029 26.4918V25.758C170.064 25.7092 170.852 25.5992 171.395 25.4277C171.937 25.2569 172.301 24.9267 172.485 24.4371C172.67 23.9481 172.763 23.2143 172.763 22.2356V1.35765H170.766C169.238 1.35765 168.098 1.57783 167.346 2.0181C166.594 2.45842 166.071 3.17392 165.775 4.16462C165.479 5.15532 165.245 6.50723 165.073 8.21912H164.222C164.272 7.82813 164.302 7.37524 164.315 6.86152C164.327 6.34779 164.333 5.79741 164.333 5.21032C164.333 4.74597 164.315 4.07919 164.278 3.21058C164.241 2.34262 164.173 1.44363 164.074 0.513725C165.11 0.538361 166.237 0.562998 167.457 0.587086C168.677 0.611772 169.903 0.623793 171.136 0.623793C172.368 0.623793 173.489 0.623793 174.5 0.623793C175.511 0.623793 176.626 0.623793 177.846 0.623793C179.066 0.623793 180.292 0.611772 181.525 0.587086C182.757 0.562998 183.878 0.538361 184.889 0.513725C184.79 1.44363 184.723 2.34262 184.686 3.21058C184.649 4.07919 184.63 4.74597 184.63 5.21032ZM169.184 40.6896H164.745V42.932H169.093V44.267H164.745V46.6649H169.184V48H163.218V39.3546H169.184V40.6896ZM141.689 23.0062C142.441 24.0829 143.328 24.8957 144.351 25.4461C145.373 25.9965 146.477 26.2716 147.66 26.2716C148.769 26.2716 149.927 26.0515 151.135 25.6112C152.342 25.1709 153.292 24.4618 153.982 23.4831C154.524 22.774 154.9 22.0034 155.109 21.1715C155.319 20.3402 155.51 19.1781 155.683 17.6858H156.533C156.533 19.9119 156.545 21.7036 156.57 23.0612C156.594 24.4187 156.631 25.5625 156.681 26.4918H155.83C155.732 25.4403 155.565 24.7799 155.331 24.5105C155.097 24.2417 154.709 24.2783 154.167 24.6206C153.255 25.2569 152.287 25.813 151.264 26.2901C150.241 26.767 148.929 27.0055 147.327 27.0055C144.985 27.0055 142.933 26.4798 141.171 25.4277C139.409 24.3763 138.041 22.8593 137.068 20.878C136.094 18.8966 135.607 16.5116 135.607 13.723C135.607 10.9837 136.112 8.58602 137.123 6.53127C138.133 4.47651 139.52 2.87464 141.282 1.72455C143.044 0.575067 145.072 0 147.364 0C148.991 0 150.327 0.238484 151.375 0.715505C152.423 1.19253 153.353 1.74924 154.167 2.38501C154.659 2.75196 155.035 2.79495 155.294 2.51343C155.553 2.2325 155.732 1.56576 155.83 0.513725H156.681C156.631 1.41894 156.594 2.51976 156.57 3.81602C156.545 5.11282 156.533 6.82481 156.533 8.95298H155.683C155.51 7.90149 155.35 7.0633 155.202 6.43956C155.054 5.81581 154.875 5.28373 154.666 4.84342C154.456 4.4031 154.179 3.96284 153.834 3.52248C153.07 2.51976 152.108 1.79223 150.95 1.3393C149.791 0.886963 148.571 0.660446 147.29 0.660446C146.082 0.660446 144.992 0.960327 144.018 1.55943C143.044 2.15914 142.207 3.02147 141.504 4.14632C140.802 5.27172 140.259 6.62937 139.877 8.21912C139.495 9.80952 139.304 11.5948 139.304 13.5762C139.304 15.631 139.514 17.4473 139.933 19.025C140.352 20.6028 140.937 21.93 141.689 23.0062ZM136.378 40.6896H131.939V42.932H136.287V44.267H131.939V46.6649H136.378V48H130.412V39.3546H136.378V40.6896ZM124.479 26.3817C123.518 26.3817 122.618 26.388 121.781 26.4001C120.942 26.4127 120.265 26.4431 119.747 26.4918V25.758C120.585 25.7092 121.22 25.6112 121.651 25.4645C122.082 25.3177 122.372 25.0242 122.52 24.5838C122.668 24.1436 122.742 23.4831 122.742 22.6025V4.4031C122.742 3.49843 122.668 2.83165 122.52 2.40341C122.372 1.97566 122.082 1.68216 121.651 1.52278C121.22 1.36398 120.585 1.27222 119.747 1.24759V0.513725C120.265 0.538361 120.942 0.562998 121.781 0.587086C122.618 0.611772 123.518 0.623793 124.479 0.623793C125.342 0.623793 126.199 0.611772 127.049 0.587086C127.899 0.562998 128.607 0.538361 129.175 0.513725V1.24759C128.337 1.27222 127.702 1.36398 127.271 1.52278C126.839 1.68216 126.55 1.97566 126.402 2.40341C126.254 2.83165 126.18 3.49843 126.18 4.4031V22.6025C126.18 23.4831 126.254 24.1436 126.402 24.5838C126.55 25.0242 126.839 25.3177 127.271 25.4645C127.702 25.6112 128.337 25.7092 129.175 25.758V26.4918C128.607 26.4431 127.899 26.4127 127.049 26.4001C126.199 26.388 125.342 26.3817 124.479 26.3817ZM124.247 40.6896H121.61V48H120.082V40.6896H117.445V39.3546H124.247V40.6896ZM111.984 4.43981L103.295 26.6753C103.246 26.6753 103.197 26.6753 103.148 26.6753C103.098 26.6753 103.049 26.6753 103 26.6753C102.95 26.6753 102.901 26.6753 102.852 26.6753C102.802 26.6753 102.753 26.6753 102.704 26.6753L93.683 3.59593C93.3133 2.66653 92.8939 2.04907 92.426 1.74296C91.9575 1.43735 91.526 1.27222 91.132 1.24759V0.513725C91.6248 0.538361 92.2348 0.562998 92.9621 0.587086C93.6888 0.611772 94.3976 0.623793 95.0879 0.623793C96.0492 0.623793 96.9486 0.611772 97.7868 0.587086C98.6244 0.562998 99.3026 0.538361 99.8202 0.513725V1.24759C98.5632 1.29691 97.7683 1.51071 97.4356 1.88968C97.1028 2.2692 97.1704 3.08221 97.6389 4.32974L104.342 21.9639L110.357 6.45786C110.875 5.13696 111.121 4.10387 111.096 3.3574C111.071 2.61147 110.788 2.07944 110.246 1.76126C109.704 1.44363 108.915 1.27222 107.88 1.24759V0.513725C108.594 0.538361 109.322 0.562998 110.061 0.587086C110.801 0.611772 111.49 0.623793 112.132 0.623793C112.772 0.623793 113.302 0.611772 113.721 0.587086C114.14 0.562998 114.535 0.538361 114.904 0.513725V1.24759C114.436 1.34558 113.937 1.62711 113.407 2.09146C112.877 2.55641 112.402 3.33905 111.984 4.43981ZM91.9457 25.758V26.4918C91.4525 26.4431 90.8487 26.4127 90.1342 26.4001C89.419 26.388 88.7045 26.3817 87.9899 26.3817C87.0286 26.3817 86.1286 26.388 85.2909 26.4001C84.4528 26.4127 83.7752 26.4431 83.2576 26.4918V25.758C84.5146 25.7092 85.3152 25.4954 85.6607 25.1159C86.0055 24.7369 85.9316 23.9235 85.4389 22.6759L83.1697 16.6584H74.2295L72.7209 20.5478C72.2033 21.8687 71.9566 22.9024 71.9815 23.6483C72.0057 24.3947 72.2894 24.9267 72.8318 25.2443C73.3737 25.5625 74.1627 25.7339 75.1979 25.758V26.4918C74.5076 26.4431 73.7867 26.4127 73.0351 26.4001C72.283 26.388 71.5869 26.3817 70.9463 26.3817C70.3299 26.3817 69.8059 26.388 69.375 26.4001C68.9435 26.4127 68.5431 26.4431 68.1734 26.4918V25.758C68.6662 25.6358 69.1717 25.3487 69.6893 24.8957C70.2068 24.4434 70.6748 23.6666 71.0942 22.5659L79.7823 0.330248C79.8805 0.330248 79.9792 0.330248 80.0781 0.330248C80.1763 0.330248 80.275 0.330248 80.3738 0.330248L89.3947 23.4098C89.7644 24.3397 90.1833 24.9571 90.6517 25.2626C91.1197 25.5688 91.5512 25.7339 91.9457 25.758ZM78.7626 4.97124L74.5141 15.9246H82.893L78.7626 4.97124ZM65.401 4.43981L56.7128 26.6753C56.6631 26.6753 56.6141 26.6753 56.5649 26.6753C56.5152 26.6753 56.4661 26.6753 56.417 26.6753C56.3673 26.6753 56.3183 26.6753 56.2692 26.6753C56.2195 26.6753 56.1704 26.6753 56.1212 26.6753L47.1003 3.59593C46.7307 2.66653 46.3113 2.04907 45.8433 1.74296C45.3748 1.43735 44.9433 1.27222 44.5494 1.24759V0.513725C45.0421 0.538361 45.6521 0.562998 46.3794 0.587086C47.1061 0.611772 47.8149 0.623793 48.5053 0.623793C49.4665 0.623793 50.3659 0.611772 51.2041 0.587086C52.0417 0.562998 52.72 0.538361 53.2375 0.513725V1.24759C51.9805 1.29691 51.1856 1.51071 50.8529 1.88968C50.5202 2.2692 50.5878 3.08221 51.0563 4.32974L57.7598 21.9639L63.7742 6.45786C64.2919 5.13696 64.538 4.10387 64.5137 3.3574C64.4888 2.61147 64.2052 2.07944 63.6634 1.76126C63.1209 1.44363 62.3324 1.27222 61.2972 1.24759V0.513725C62.0118 0.538361 62.7391 0.562998 63.4785 0.587086C64.2179 0.611772 64.9077 0.623793 65.5489 0.623793C66.1895 0.623793 66.7192 0.611772 67.1386 0.587086C67.5574 0.562998 67.952 0.538361 68.3217 0.513725V1.24759C67.8532 1.34558 67.3541 1.62711 66.8244 2.09146C66.2941 2.55641 65.8198 3.33905 65.401 4.43981ZM34.1979 26.3817C33.2366 26.3817 32.3366 26.388 31.499 26.4001C30.6608 26.4127 29.9832 26.4431 29.4656 26.4918V25.758C30.3032 25.7092 30.9381 25.6112 31.3696 25.4645C31.8005 25.3177 32.0905 25.0242 32.2384 24.5838C32.3863 24.1436 32.4603 23.4831 32.4603 22.6025V4.4031C32.4603 3.49843 32.3863 2.83165 32.2384 2.40341C32.0905 1.97566 31.8005 1.68216 31.3696 1.52278C30.9381 1.36398 30.3032 1.27222 29.4656 1.24759V0.513725C29.9832 0.538361 30.6608 0.562998 31.499 0.587086C32.3366 0.611772 33.2366 0.623793 34.1979 0.623793C35.0603 0.623793 35.917 0.611772 36.7673 0.587086C37.6176 0.562998 38.3259 0.538361 38.8932 0.513725V1.24759C38.055 1.27222 37.4201 1.36398 36.9892 1.52278C36.5576 1.68216 36.2683 1.97566 36.1203 2.40341C35.9725 2.83165 35.8985 3.49843 35.8985 4.4031V22.6025C35.8985 23.4831 35.9725 24.1436 36.1203 24.5838C36.2683 25.0242 36.5576 25.3177 36.9892 25.4645C37.4201 25.6112 38.055 25.7092 38.8932 25.758V26.4918C38.3259 26.4431 37.6176 26.4127 36.7673 26.4001C35.917 26.388 35.0603 26.3817 34.1979 26.3817ZM17.0067 24.8407C15.0103 25.9415 12.5944 26.4918 9.76035 26.4918C9.21794 26.4918 8.41667 26.4735 7.35726 26.4368C6.29723 26.4001 5.37294 26.3817 4.58442 26.3817C3.72137 26.3817 2.87106 26.388 2.03346 26.4001C1.19525 26.4127 0.517612 26.4431 0 26.4918V25.758C0.837657 25.7092 1.47253 25.6112 1.90405 25.4645C2.33498 25.3177 2.62496 25.0242 2.77283 24.5838C2.92076 24.1436 2.99469 23.4831 2.99469 22.6025V4.4031C2.99469 3.49843 2.92076 2.83165 2.77283 2.40341C2.62496 1.97566 2.33498 1.68216 1.90405 1.52278C1.47253 1.36398 0.837657 1.27222 0 1.24759V0.513725C0.517612 0.538361 1.19525 0.568785 2.03346 0.60549C2.87106 0.642146 3.69712 0.648479 4.51049 0.623793C5.37294 0.599705 6.34632 0.575069 7.43119 0.550432C8.51546 0.526344 9.40281 0.513725 10.0931 0.513725C14.5048 0.513725 17.7831 1.60875 19.9274 3.79771C22.0717 5.98722 23.1439 9.12439 23.1439 13.2093C23.1439 15.8758 22.6199 18.2057 21.5726 20.1992C20.5247 22.1932 19.0031 23.74 17.0067 24.8407ZM17.1731 4.18292C15.6573 2.17749 12.989 1.17418 9.16885 1.17418C8.03489 1.17418 7.29546 1.38229 6.95057 1.79792C6.60513 2.21419 6.43296 3.05812 6.43296 4.32974V22.6759C6.43296 23.9481 6.61151 24.792 6.96905 25.2076C7.32609 25.6238 8.07184 25.8313 9.20584 25.8313C11.892 25.8313 13.9751 25.3487 15.4539 24.3821C16.9327 23.4161 17.9679 22.0034 18.5595 20.1441C19.151 18.2855 19.4468 16.0226 19.4468 13.3561C19.4468 9.24652 18.6889 6.189 17.1731 4.18292ZM110.239 39.3546L113.659 48H111.923L111.283 46.3409H107.288L106.648 48H104.912L108.333 39.3546H110.239ZM110.852 45.0058L109.286 40.8841L107.719 45.0058H110.852ZM144.653 46.6649H148.491V48H143.125V39.3546H144.653V46.6649ZM156.232 48H154.704V39.3546H156.232V48ZM181.819 40.1063C182.341 40.6076 182.602 41.2599 182.602 42.0635C182.602 42.7894 182.402 43.3706 182.002 43.8069C181.601 44.2433 181.114 44.509 180.54 44.6041L182.668 48H180.905L178.973 44.7725H177.459V48H175.931V39.3546H179.756C180.609 39.3546 181.297 39.6053 181.819 40.1063ZM177.459 40.6896V43.4375H179.547C179.983 43.4375 180.339 43.3123 180.618 43.0616C180.896 42.8111 181.036 42.4783 181.036 42.0635C181.036 41.6488 180.896 41.3162 180.618 41.0655C180.339 40.815 179.983 40.6896 179.547 40.6896H177.459Z" fill="white"/>
</svg>
