<svg width="200" height="200" viewBox="0 0 200 200" fill="none" xmlns="http://www.w3.org/2000/svg">
<rect width="200" height="200" fill="white"/>
<path fill-rule="evenodd" clip-rule="evenodd" d="M166.911 88.3176L125.002 196C124.838 196 124.552 196 124.104 196L80.5899 84.2307C78.8065 79.7299 76.7835 76.7397 74.5265 75.2571C72.2666 73.7773 68.3114 72.9305 66.4109 72.8111V69.3082H108.257V72.8111C102.194 73.0499 96.3852 74.1326 94.7803 75.9679C93.1752 77.8059 93.5012 81.743 95.7611 87.7844L129.045 175.791L159.064 98.0907C161.561 91.6937 162.748 86.6905 162.631 83.0757C162.511 79.4635 161.143 76.8869 158.529 75.3459C155.913 73.8078 151.969 72.9305 146.975 72.8111V69.3082H181V72.8111C178.74 73.2859 176.332 74.6963 173.777 76.9452C171.219 79.197 168.931 82.9869 166.911 88.3176V88.3176ZM112.155 121.151L110.054 115.599C112.785 112.032 114.917 107.859 116.435 103.066C119.289 94.0648 120.715 83.1061 120.715 70.1929C120.715 50.2911 117.06 35.4842 109.748 25.7693C102.436 16.0572 85.6543 11.1984 67.2271 11.1984C61.7573 11.1984 56.2351 12.2063 54.5716 14.2191C52.9052 16.235 52.0748 20.3218 52.0748 26.4801V115.327C52.0748 121.488 52.9359 125.575 54.6607 127.588C56.3828 129.603 61.9356 130.609 67.4055 130.609C76.2555 130.609 85.5712 129.517 92.8617 127.334L94.079 130.451C86.9235 132.684 78.9272 133.807 70.0805 133.807C68.6234 133.807 66.7777 133.779 64.5464 133.724H23V130.221C27.0404 129.985 32.058 129.542 34.1394 128.832C36.2182 128.121 37.617 126.699 38.3303 124.567C39.0437 122.435 39.4005 119.236 39.4005 114.972V26.8356C39.4005 22.4541 39.0437 19.2251 38.3303 17.1512C37.617 15.0798 36.2182 13.6582 34.1394 12.8864C32.058 12.1174 27.0404 11.6279 23 11.5084V8.00535H69.8731C70.5049 8.00193 71.1104 8 71.6855 8C92.9663 8 108.779 13.3029 119.123 23.9035C129.466 34.5069 134.638 49.6996 134.638 69.482C134.638 82.3954 132.111 93.6788 127.059 103.333C123.334 110.449 118.364 116.385 112.155 121.151V121.151Z" fill="black"/>
</svg>
