<svg width="16" height="16" viewBox="0 0 16 16" fill="none" xmlns="http://www.w3.org/2000/svg">
<path fill-rule="evenodd" clip-rule="evenodd" d="M0 4.36364C0 1.95367 1.95367 0 4.36364 0H11.6364C14.0463 0 16 1.95367 16 4.36364V11.6364C16 14.0463 14.0463 16 11.6364 16H4.36364C1.95367 16 0 14.0463 0 11.6364V4.36364ZM4.36364 1.45455C2.75699 1.45455 1.45455 2.75699 1.45455 4.36364V11.6364C1.45455 13.243 2.75699 14.5455 4.36364 14.5455H11.6364C13.243 14.5455 14.5455 13.243 14.5455 11.6364V4.36364C14.5455 2.75699 13.243 1.45455 11.6364 1.45455H4.36364ZM8 5.45455C6.59418 5.45455 5.45455 6.59418 5.45455 8C5.45455 9.40582 6.59418 10.5455 8 10.5455C9.40582 10.5455 10.5455 9.40582 10.5455 8C10.5455 6.59418 9.40582 5.45455 8 5.45455ZM4 8C4 5.79086 5.79086 4 8 4C10.2091 4 12 5.79086 12 8C12 10.2091 10.2091 12 8 12C5.79086 12 4 10.2091 4 8ZM12.3636 4.72727C12.9661 4.72727 13.4545 4.23886 13.4545 3.63636C13.4545 3.03387 12.9661 2.54545 12.3636 2.54545C11.7611 2.54545 11.2727 3.03387 11.2727 3.63636C11.2727 4.23886 11.7611 4.72727 12.3636 4.72727Z" fill="black"/>
</svg>
